<?xml version="1.0" encoding="UTF-8"?>
<svg version="1.1" xmlns="http://www.w3.org/2000/svg" width="500" height="500">
<path d="M0 0 C3.15391828 0.29338775 4.42746287 1.07366795 6.6875 3.25 C6.6875 3.91 6.6875 4.57 6.6875 5.25 C7.265 5.518125 7.8425 5.78625 8.4375 6.0625 C10.74300043 7.27929189 12.70806192 8.55333879 14.6875 10.25 C14.6875 10.91 14.6875 11.57 14.6875 12.25 C15.409375 12.476875 16.13125 12.70375 16.875 12.9375 C20.28928807 14.53083443 22.08221214 16.52353596 24.6875 19.25 C25.93232686 20.29784327 27.18282875 21.33896453 28.4375 22.375 C32.67930559 26.03145245 36.06459747 30.20285929 39.51171875 34.6015625 C41.75676028 37.33430605 44.16593843 39.77274702 46.6875 42.25 C72.6875 70.38390929 72.6875 70.38390929 72.6875 81.25 C73.3475 81.25 74.0075 81.25 74.6875 81.25 C77.6875 87.875 77.6875 87.875 77.6875 91.25 C78.47640625 90.79882812 79.2653125 90.34765625 80.078125 89.8828125 C84.46859367 87.8966481 88.72474346 87.02164318 93.4375 86.125 C95.14108689 85.79141273 96.84423678 85.45558352 98.546875 85.1171875 C99.29420898 84.97394043 100.04154297 84.83069336 100.81152344 84.68310547 C102.76361599 84.30967039 102.76361599 84.30967039 104.6875 83.25 C107.5427469 82.84962249 110.38495703 82.49866718 113.25 82.1875 C114.02408203 82.09662109 114.79816406 82.00574219 115.59570312 81.91210938 C116.36978516 81.82638672 117.14386719 81.74066406 117.94140625 81.65234375 C118.63564697 81.57491943 119.3298877 81.49749512 120.04516602 81.41772461 C123.91855124 81.17185788 127.80631931 81.25 131.6875 81.25 C132.0175 98.74 132.3475 116.23 132.6875 134.25 C136.3175 133.92 139.9475 133.59 143.6875 133.25 C145.87467564 133.21233067 148.06299628 133.20340605 150.25 133.25 C154.12257621 133.43542917 154.12257621 133.43542917 157.6875 132.25 C159.66474061 132.15327168 161.6454006 132.12020097 163.625 132.125 C164.68589844 132.12242187 165.74679687 132.11984375 166.83984375 132.1171875 C169.6875 132.25 169.6875 132.25 172.6875 133.25 C175.65764267 133.28000144 178.61341305 133.18390643 181.58203125 133.08984375 C184.93227284 133.2626235 187.56513196 134.05985971 190.6875 135.25 C191.62208423 163.14733918 191.18332868 199.03313654 177.6875 224.25 C177.06448643 226.25895476 176.48200988 228.28086171 175.9375 230.3125 C173.78176078 237.54492279 170.4157555 243.72353105 166.6875 250.25 C165.16789512 253.13400072 163.65257772 256.02009601 162.14453125 258.91015625 C160.57979691 261.42296019 158.81405318 263.20129752 156.6875 265.25 C155.58115369 266.62766457 154.49805627 268.02428303 153.4375 269.4375 C145.35891415 279.92760402 136.44242647 288.55021579 125.6875 296.25 C125.04683594 296.72050781 124.40617187 297.19101562 123.74609375 297.67578125 C118.93303951 301.06409837 113.87313644 303.79768252 108.625 306.4375 C107.6340332 306.93709229 107.6340332 306.93709229 106.62304688 307.44677734 C102.06898539 309.69108564 97.46429407 311.52954451 92.6875 313.25 C91.718125 313.600625 90.74875 313.95125 89.75 314.3125 C87.28101405 315.06831203 84.89535826 315.65552127 82.375 316.1875 C78.43331849 317.02361426 74.71053605 318.19077974 70.92578125 319.56640625 C59.167889 323.15738556 45.60513449 322.34637639 33.4375 322.375 C32.36145508 322.37959229 31.28541016 322.38418457 30.17675781 322.38891602 C22.9683002 322.37513417 15.86062581 321.95637107 8.6875 321.25 C7.59306365 317.96669094 7.77672084 317.02696851 8.578125 313.76953125 C8.79186768 312.86638184 9.00561035 311.96323242 9.22583008 311.03271484 C9.46068115 310.05254395 9.69553223 309.07237305 9.9375 308.0625 C19.14899511 267.03209779 20.52542082 220.38888479 2.5703125 181.4296875 C1.6875 179.25 1.6875 179.25 1.6875 176.25 C1.0275 176.25 0.3675 176.25 -0.3125 176.25 C-0.50585938 176.91386719 -0.69921875 177.57773438 -0.8984375 178.26171875 C-3.48473199 187.03207381 -3.48473199 187.03207381 -5.3125 191.25 C-5.9725 191.25 -6.6325 191.25 -7.3125 191.25 C-8.55085101 197.32318954 -9.71144536 203.40093741 -10.75 209.51171875 C-11.3125 212.25 -11.3125 212.25 -12.3046875 215.65625 C-20.57000278 245.12946728 -15.22963888 279.61650488 -9.34521484 308.96948242 C-9.21232056 309.63272018 -9.07942627 310.29595795 -8.94250488 310.97929382 C-8.57453485 312.80763408 -8.20313638 314.63528335 -7.83154297 316.46289062 C-7.3125 319.25 -7.3125 319.25 -7.3125 321.25 C-60.45535714 324.67857143 -60.45535714 324.67857143 -71.3125 319.25 C-71.3125 318.59 -71.3125 317.93 -71.3125 317.25 C-71.88814697 317.43570557 -72.46379395 317.62141113 -73.05688477 317.81274414 C-75.61847076 318.30931309 -76.93247834 318.02530999 -79.40234375 317.24609375 C-80.1804541 317.0030249 -80.95856445 316.75995605 -81.76025391 316.50952148 C-82.58187012 316.23825439 -83.40348633 315.9669873 -84.25 315.6875 C-85.52109619 315.27576538 -85.52109619 315.27576538 -86.81787109 314.85571289 C-97.20299312 311.40679753 -106.86678096 306.76696865 -116.3125 301.25 C-117.21613281 300.74210937 -118.11976562 300.23421875 -119.05078125 299.7109375 C-119.96214844 299.18757813 -120.87351562 298.66421875 -121.8125 298.125 C-122.6478125 297.64804687 -123.483125 297.17109375 -124.34375 296.6796875 C-126.3125 295.25 -126.3125 295.25 -127.3125 292.25 C-128.3953125 292.1571875 -128.3953125 292.1571875 -129.5 292.0625 C-133.22766905 290.98561783 -134.71953828 289.10225789 -137.3125 286.25 C-138.1375 285.425 -138.9625 284.6 -139.8125 283.75 C-140.6375 282.925 -141.4625 282.1 -142.3125 281.25 C-143.240625 280.363125 -144.16875 279.47625 -145.125 278.5625 C-147.3125 276.25 -147.3125 276.25 -147.3125 274.25 C-148.240625 273.9096875 -148.240625 273.9096875 -149.1875 273.5625 C-151.92660209 271.87070165 -152.36274472 270.25755839 -153.3125 267.25 C-153.9725 267.25 -154.6325 267.25 -155.3125 267.25 C-159.3125 261.83823529 -159.3125 261.83823529 -159.3125 259.25 C-159.9725 259.25 -160.6325 259.25 -161.3125 259.25 C-161.98404933 257.96086513 -162.64958859 256.66859796 -163.3125 255.375 C-163.68375 254.65570313 -164.055 253.93640625 -164.4375 253.1953125 C-165.3125 251.25 -165.3125 251.25 -165.3125 249.25 C-165.9725 249.25 -166.6325 249.25 -167.3125 249.25 C-167.63863281 248.44175781 -167.96476562 247.63351562 -168.30078125 246.80078125 C-168.73777344 245.73214844 -169.17476562 244.66351563 -169.625 243.5625 C-170.05425781 242.50675781 -170.48351562 241.45101562 -170.92578125 240.36328125 C-172.21855932 237.2764259 -172.21855932 237.2764259 -173.88671875 234.69140625 C-175.40992824 232.08317083 -176.1076284 229.80357367 -176.8125 226.875 C-177.57280282 223.73422526 -178.41495484 221.02869755 -179.77734375 218.0859375 C-181.87577467 213.34081359 -182.5436561 208.34069843 -183.375 203.25 C-184.40155764 197.11539047 -185.59557928 191.2344932 -187.3125 185.25 C-187.76574255 182.58929836 -188.14660182 179.99001763 -188.4375 177.3125 C-188.52241699 176.53414795 -188.60733398 175.7557959 -188.69482422 174.95385742 C-189.95726962 161.45686826 -189.47551879 147.7893378 -189.3125 134.25 C-185.39128407 133.66848557 -181.65329197 133.13463151 -177.6875 133.25 C-175.29505091 133.319096 -173.28093177 133.24347935 -170.9296875 132.7578125 C-167.92572112 132.17495335 -165.12070904 132.11746747 -162.0625 132.125 C-160.47695312 132.12113281 -160.47695312 132.12113281 -158.859375 132.1171875 C-156.3125 132.25 -156.3125 132.25 -155.3125 133.25 C-151.94452312 133.32402147 -148.58683548 133.2460754 -145.21875 133.1875 C-140.90266542 133.25655735 -136.60273531 133.77330719 -132.3125 134.25 C-131.9825 116.76 -131.6525 99.27 -131.3125 81.25 C-124.96618566 81.25 -118.94688909 81.29742996 -112.6875 82 C-111.92260254 82.08507812 -111.15770508 82.17015625 -110.36962891 82.2578125 C-102.48014045 83.2202228 -94.96933928 85.15133741 -87.3125 87.25 C-84.64875208 87.92901737 -81.98110689 88.59021198 -79.3125 89.25 C-79.3125 89.91 -79.3125 90.57 -79.3125 91.25 C-78.6525 91.25 -77.9925 91.25 -77.3125 91.25 C-77.126875 90.321875 -76.94125 89.39375 -76.75 88.4375 C-75.42686591 83.75927588 -72.76893984 80.03554426 -70.10546875 76.015625 C-68.53734931 73.59682639 -67.1535547 71.17344946 -65.8125 68.625 C-63.19019071 63.80726898 -60.0725782 59.25633017 -56.3125 55.25 C-55.6525 55.25 -54.9925 55.25 -54.3125 55.25 C-54.25449219 54.22326172 -54.25449219 54.22326172 -54.1953125 53.17578125 C-52.91719561 48.93989827 -50.2442872 46.54783367 -47.1875 43.4375 C-45.99393687 42.19092205 -44.80122124 40.94353206 -43.609375 39.6953125 C-43.03638672 39.10008789 -42.46339844 38.50486328 -41.87304688 37.89160156 C-39.99704277 35.91815794 -38.20667515 33.881948 -36.4375 31.8125 C-29.9477278 24.31932163 -29.9477278 24.31932163 -26.3125 21.25 C-25.6525 21.25 -24.9925 21.25 -24.3125 21.25 C-24.3125 20.59 -24.3125 19.93 -24.3125 19.25 C-22.84375 17.76953125 -22.84375 17.76953125 -20.8125 16.0625 C-18.54695232 14.14704583 -16.29635006 12.23525067 -14.10546875 10.234375 C-13.41066406 9.60015625 -12.71585938 8.9659375 -12 8.3125 C-11.36449219 7.72597656 -10.72898438 7.13945313 -10.07421875 6.53515625 C-8.3125 5.25 -8.3125 5.25 -5.3125 5.25 C-5.003125 4.610625 -4.69375 3.97125 -4.375 3.3125 C-2.82594319 0.30550737 -2.82594319 0.30550737 0 0 Z M-10.3125 33.25 C-12.12892093 35.17300797 -13.68335202 37.15538117 -15.3125 39.25 C-17.75982074 41.88086979 -19.81517383 43.96581362 -22.9375 45.75 C-25.82729298 47.57513241 -26.63101865 49.29059282 -28.3125 52.25 C-30.23851576 54.64769309 -32.28100258 56.94148021 -34.3125 59.25 C-37.62427456 63.07567061 -40.52221364 67.02672752 -43.3125 71.25 C-44.11162232 72.42300688 -44.91246209 73.59484522 -45.71484375 74.765625 C-52.96503811 84.99525399 -52.96503811 84.99525399 -58.3125 96.25 C-57.9825 96.91 -57.6525 97.57 -57.3125 98.25 C-55.46912837 98.87509715 -55.46912837 98.87509715 -53.1875 99.375 C-40.88206932 102.8480227 -28.55566427 110.63153761 -18.3125 118.125 C-15.65321856 120.44267245 -15.65321856 120.44267245 -13.3125 120.25 C-13.3125 120.91 -13.3125 121.57 -13.3125 122.25 C-11.42684395 123.88863848 -11.42684395 123.88863848 -9.0625 125.5625 C-5.57071243 128.18271108 -2.95859812 130.75715048 -0.3125 134.25 C0.3475 134.25 1.0075 134.25 1.6875 134.25 C1.935 133.46625 2.1825 132.6825 2.4375 131.875 C3.9267174 128.74764347 4.68715663 128.70977209 7.6875 127.25 C9.78922644 125.50326766 11.77749911 123.66211214 13.78515625 121.80859375 C15.6875 120.25 15.6875 120.25 18.6875 119.25 C18.6875 118.59 18.6875 117.93 18.6875 117.25 C20.83596259 116.16829146 22.99042835 115.10499638 25.16015625 114.06640625 C26.01480469 113.65261719 26.86945313 113.23882812 27.75 112.8125 C28.60722656 112.40128906 29.46445312 111.99007812 30.34765625 111.56640625 C32.57734804 110.31197197 33.90728631 109.04460895 35.6875 107.25 C37.6328125 106.22265625 37.6328125 106.22265625 39.8125 105.3125 C40.60398437 104.97605469 41.39546875 104.63960938 42.2109375 104.29296875 C43.43683594 103.77669922 43.43683594 103.77669922 44.6875 103.25 C46.27223887 102.54481685 47.85562315 101.83658006 49.4375 101.125 C52.49593567 99.76450497 55.56509099 98.45867446 58.6875 97.25 C57.58882056 92.85528222 56.53216468 89.75112576 53.6875 86.25 C53.11 85.21875 52.5325 84.1875 51.9375 83.125 C47.98711818 76.08367057 43.04109569 69.61602714 38.16015625 63.19921875 C37.13189489 61.83820438 36.12008402 60.46467364 35.12109375 59.08203125 C34.60675781 58.37433594 34.09242188 57.66664063 33.5625 56.9375 C33.10617187 56.30199219 32.64984375 55.66648437 32.1796875 55.01171875 C30.71626693 53.14345251 30.71626693 53.14345251 28.5703125 51.70703125 C26.6875 50.25 26.6875 50.25 25.6875 47.25 C23.67241642 46.51676204 23.67241642 46.51676204 21.6875 46.25 C21.6875 45.59 21.6875 44.93 21.6875 44.25 C21.0275 44.25 20.3675 44.25 19.6875 44.25 C19.625625 43.63125 19.56375 43.0125 19.5 42.375 C19.231875 41.67375 18.96375 40.9725 18.6875 40.25 C17.02677151 39.56867549 15.359733 38.90257873 13.6875 38.25 C13.2853125 37.37601563 13.2853125 37.37601563 12.875 36.484375 C11.21325702 33.3576744 8.87986514 31.69814533 6.125 29.5 C5.13371094 28.70078125 4.14242187 27.9015625 3.12109375 27.078125 C-1.92549123 23.28711092 -6.23586315 29.73302624 -10.3125 33.25 Z M-111.3125 103.25 C-111.3618651 108.19790177 -111.39820269 113.14566083 -111.42236328 118.09375 C-111.43243317 119.77769466 -111.44608988 121.46162179 -111.46337891 123.14550781 C-111.48758426 125.56319501 -111.49897296 127.98065143 -111.5078125 130.3984375 C-111.51813507 131.1536972 -111.52845764 131.90895691 -111.53909302 132.68710327 C-111.53949318 134.5429398 -111.43472716 136.3981928 -111.3125 138.25 C-108.4302894 141.1322106 -105.06380987 141.2189061 -101.1875 141.875 C-100.43339844 142.0090625 -99.67929688 142.143125 -98.90234375 142.28125 C-97.04030082 142.61123229 -95.17654825 142.93154073 -93.3125 143.25 C-91.59260468 136.69976038 -90.07407331 130.15496606 -88.8125 123.5 C-87.76850612 118.12536482 -86.46694297 113.27703359 -84.3125 108.25 C-86.18544013 107.78332056 -88.06104048 107.32732079 -89.9375 106.875 C-90.98164063 106.61976563 -92.02578125 106.36453125 -93.1015625 106.1015625 C-99.10266288 104.77755577 -105.22748439 104.0756797 -111.3125 103.25 Z M97.5625 105.625 C96.50869141 105.81449219 96.50869141 105.81449219 95.43359375 106.0078125 C91.90251037 106.67531408 88.7908806 107.4008354 85.6875 109.25 C85.96464844 110.17941406 86.24179687 111.10882813 86.52734375 112.06640625 C87.07068359 113.92072266 87.07068359 113.92072266 87.625 115.8125 C87.98464844 117.03066406 88.34429687 118.24882812 88.71484375 119.50390625 C89.64557515 123.0885304 90.19427863 126.58416546 90.6875 130.25 C91.0175 131.24 91.3475 132.23 91.6875 133.25 C92.79543257 136.57379772 93.2708504 139.77791997 93.6875 143.25 C95.58350369 142.93853528 97.47929587 142.62578283 99.375 142.3125 C100.43074219 142.13847656 101.48648437 141.96445313 102.57421875 141.78515625 C103.60160156 141.60855469 104.62898438 141.43195313 105.6875 141.25 C106.62207031 141.10433594 107.55664062 140.95867187 108.51953125 140.80859375 C109.23496094 140.62425781 109.95039063 140.43992188 110.6875 140.25 C112.22047297 137.18405406 111.80881455 133.97888147 111.78515625 130.6171875 C111.7837413 129.86535187 111.78232635 129.11351624 111.78086853 128.33889771 C111.77526465 125.9342249 111.76271157 123.52964473 111.75 121.125 C111.7449855 119.49609509 111.7404225 117.86718873 111.73632812 116.23828125 C111.72529397 112.24215173 111.70802679 108.24609158 111.6875 104.25 C106.83421658 104.18545021 102.31855717 104.70731921 97.5625 105.625 Z M-66.3125 115.25 C-68.51936669 118.56030003 -69.00948892 120.86402663 -69.78515625 124.74609375 C-70.04490234 126.02677734 -70.30464844 127.30746094 -70.57226562 128.62695312 C-70.84008003 129.98042202 -71.10765575 131.33393816 -71.375 132.6875 C-71.64585384 134.03723606 -71.91733151 135.38684709 -72.18945312 136.73632812 C-72.68964726 139.21734094 -73.1867835 141.69897353 -73.67993164 144.18139648 C-74.1698566 146.55803363 -74.69658989 148.90376179 -75.3125 151.25 C-74.0440625 151.92095703 -74.0440625 151.92095703 -72.75 152.60546875 C-62.34938751 158.14852245 -62.34938751 158.14852245 -57.625 161.1875 C-54.67988817 163.42618615 -54.67988817 163.42618615 -52.3125 163.25 C-52.3125 163.91 -52.3125 164.57 -52.3125 165.25 C-50.92396615 166.19826702 -49.52988661 167.13940515 -48.109375 168.0390625 C-40.27971311 173.31557377 -40.27971311 173.31557377 -38.3125 177.25 C-37.4875 177.724375 -36.6625 178.19875 -35.8125 178.6875 C-33.3125 180.25 -33.3125 180.25 -32.3125 183.25 C-30.35652816 184.64712274 -28.35813599 185.98779907 -26.3125 187.25 C-23.81313756 184.75063756 -23.27526247 182.60191992 -22.1875 179.25 C-21.83429688 178.1775 -21.48109375 177.105 -21.1171875 176 C-20.2188875 173.40763382 -20.2188875 173.40763382 -20.3125 171.25 C-19.6525 171.25 -18.9925 171.25 -18.3125 171.25 C-18.08175781 170.6209375 -17.85101563 169.991875 -17.61328125 169.34375 C-15.60714136 164.07862397 -13.442084 159.56686994 -10.0703125 155.0390625 C-9.06332694 153.21553854 -9.06332694 153.21553854 -10.03125 151.1484375 C-11.74306463 148.61202923 -13.88567122 147.0990124 -16.3125 145.25 C-17.034375 144.5075 -17.75625 143.765 -18.5 143 C-20.13239123 141.0184685 -20.13239123 141.0184685 -22.3125 141.25 C-22.3125 140.59 -22.3125 139.93 -22.3125 139.25 C-22.9725 139.25 -23.6325 139.25 -24.3125 139.25 C-24.3125 138.59 -24.3125 137.93 -24.3125 137.25 C-24.951875 136.96125 -25.59125 136.6725 -26.25 136.375 C-28.3125 135.25 -28.3125 135.25 -29.3125 133.25 C-30.69674504 132.38341684 -32.12038439 131.57892237 -33.5625 130.8125 C-36.87066959 129.04185218 -40.10147184 127.19155191 -43.3125 125.25 C-50.72985698 120.85583117 -58.04407933 117.7031091 -66.3125 115.25 Z M21.9375 140.625 C21.31641357 141.14916504 20.69532715 141.67333008 20.05541992 142.21337891 C18.55750495 143.51206589 17.11655717 144.87590657 15.6875 146.25 C15.6875 146.91 15.6875 147.57 15.6875 148.25 C14.0375 148.91 12.3875 149.57 10.6875 150.25 C10.11300904 154.04164033 10.65074625 155.1992811 12.94921875 158.37109375 C13.40369385 158.98525146 13.85816895 159.59940918 14.32641602 160.23217773 C16.64983718 163.67667567 18.19378797 167.43674952 19.8125 171.25 C20.14636719 172.01828125 20.48023438 172.7865625 20.82421875 173.578125 C21.78715545 175.79854374 22.73888476 178.02343133 23.6875 180.25 C24.26799014 181.60426915 24.84869724 182.95844533 25.4296875 184.3125 C25.84476563 185.281875 26.25984375 186.25125 26.6875 187.25 C30.97484999 185.03461822 30.97484999 185.03461822 33.25 181.125 C33.394375 180.50625 33.53875 179.8875 33.6875 179.25 C35.34447379 178.55959426 37.0130761 177.8969365 38.6875 177.25 C40.373756 175.60315566 42.03787608 173.93353689 43.6875 172.25 C52.6615604 164.4161416 62.25836264 157.05971245 73.6875 153.25 C73.6875 152.59 73.6875 151.93 73.6875 151.25 C74.3475 151.25 75.0075 151.25 75.6875 151.25 C75.54654936 149.6245692 75.39957913 147.99965949 75.25 146.375 C75.16878906 145.47007812 75.08757812 144.56515625 75.00390625 143.6328125 C74.81760715 141.23889139 74.81760715 141.23889139 73.6875 139.25 C73.33797865 137.58665286 73.00922461 135.91894642 72.6875 134.25 C72.04207534 131.34919075 71.36485791 128.45599628 70.6875 125.5625 C70.50960937 124.79099609 70.33171875 124.01949219 70.1484375 123.22460938 C69.23299657 119.13029651 69.23299657 119.13029651 67.6875 115.25 C52.06409884 115.25 33.21637196 131.05721754 21.9375 140.625 Z M-169.3125 153.25 C-169.17249343 157.4168836 -169.02444282 161.58344499 -168.875 165.75 C-168.83568359 166.92304688 -168.79636719 168.09609375 -168.75585938 169.3046875 C-168.40781002 181.03843306 -168.40781002 181.03843306 -165.3125 192.25 C-164.61256384 195.41959302 -164.0715253 198.61761401 -163.5 201.8125 C-161.98767231 209.8048921 -159.84163911 216.89420714 -156.3125 224.25 C-155.70237343 225.66113362 -155.0930804 227.07262777 -154.484375 228.484375 C-152.29541245 233.42754209 -149.72461086 238.11124317 -147.0625 242.8125 C-146.60359375 243.63041016 -146.1446875 244.44832031 -145.671875 245.29101562 C-144.5556091 247.27936425 -143.43579602 249.26561734 -142.3125 251.25 C-141.6525 251.25 -140.9925 251.25 -140.3125 251.25 C-140.06757813 251.97445312 -139.82265625 252.69890625 -139.5703125 253.4453125 C-136.1114672 261.15789301 -128.11907627 268.32053709 -121.3125 273.25 C-120.6525 273.25 -119.9925 273.25 -119.3125 273.25 C-119.085625 273.848125 -118.85875 274.44625 -118.625 275.0625 C-116.93607989 277.87736684 -115.18313152 278.68420099 -112.3125 280.25 C-111.343125 280.91 -110.37375 281.57 -109.375 282.25 C-106.42694898 284.17525781 -103.47134521 285.70281051 -100.3125 287.25 C-99.27609375 287.87519531 -98.2396875 288.50039063 -97.171875 289.14453125 C-93.1194823 291.47006718 -88.93044035 292.98950242 -84.5 294.4375 C-83.71189941 294.69869629 -82.92379883 294.95989258 -82.11181641 295.22900391 C-76.48335176 297.02951049 -71.24359235 298.05867444 -65.3125 298.25 C-65.9725 297.92 -66.6325 297.59 -67.3125 297.25 C-67.3125 296.59 -67.3125 295.93 -67.3125 295.25 C-69.35752031 293.60388343 -69.35752031 293.60388343 -71.9375 291.9375 C-75.02674146 289.84591725 -77.99834416 287.76263568 -80.8125 285.3125 C-83.02946225 283.03787235 -83.02946225 283.03787235 -85.3125 283.25 C-85.6425 282.26 -85.9725 281.27 -86.3125 280.25 C-88.04015164 278.53710995 -88.04015164 278.53710995 -90.125 276.875 C-93.27076806 274.21061282 -95.80518929 271.53544162 -98.3125 268.25 C-99.09625 267.46625 -99.88 266.6825 -100.6875 265.875 C-116.35109701 250.21140299 -130.15711714 228.36922937 -130.51782227 205.54174805 C-130.5477401 203.86057137 -130.5477401 203.86057137 -130.57826233 202.14543152 C-130.59497482 200.9463063 -130.61168732 199.74718109 -130.62890625 198.51171875 C-130.64968735 197.27581497 -130.67046844 196.03991119 -130.69187927 194.76655579 C-130.74609931 191.49347874 -130.79637578 188.2203726 -130.84472656 184.94720459 C-130.8951157 181.6021174 -130.95078816 178.25712276 -131.00585938 174.91210938 C-131.11285943 168.35814229 -131.21465892 161.80410987 -131.3125 155.25 C-140.5384055 153.84500761 -149.40129312 152.96370844 -158.75 153.125 C-159.77931641 153.13402344 -160.80863281 153.14304688 -161.86914062 153.15234375 C-164.35053173 153.17542646 -166.8313707 153.2079634 -169.3125 153.25 Z M131.6875 155.25 C131.67941315 155.94411484 131.67132629 156.63822968 131.66299438 157.3533783 C131.58470908 163.9288403 131.49731927 170.50411295 131.39997292 177.07932186 C131.35025275 180.45884622 131.30392305 183.83834295 131.265625 187.21801758 C131.21974299 191.11297047 131.16178606 195.00758937 131.1015625 198.90234375 C131.09001129 200.1026976 131.07846008 201.30305145 131.06655884 202.53977966 C130.91165444 211.4311589 129.68758387 219.00518182 126.41796875 227.25390625 C125.2222125 230.52145409 124.47373996 233.86312017 123.6875 237.25 C123.0275 237.25 122.3675 237.25 121.6875 237.25 C121.44257813 237.82105469 121.19765625 238.39210938 120.9453125 238.98046875 C114.71750021 252.48837886 104.05904416 264.25898058 93.3671875 274.46484375 C91.45907824 276.08423963 91.45907824 276.08423963 91.6875 278.25 C91.089375 278.53875 90.49125 278.8275 89.875 279.125 C87.49422208 280.29742026 87.49422208 280.29742026 84.6875 282.25 C84.6875 282.91 84.6875 283.57 84.6875 284.25 C83.511875 284.62125 83.511875 284.62125 82.3125 285 C79.56079158 285.96951553 79.56079158 285.96951553 78.75 288.25 C77.6875 290.25 77.6875 290.25 74.5625 291.5 C73.61375 291.7475 72.665 291.995 71.6875 292.25 C71.6875 292.91 71.6875 293.57 71.6875 294.25 C71.06875 294.53875 70.45 294.8275 69.8125 295.125 C67.55424235 296.18720042 67.55424235 296.18720042 65.6875 298.25 C85.82105717 297.00771669 105.48703614 287.28689418 120.6875 274.25 C121.49703125 273.56164062 122.3065625 272.87328125 123.140625 272.1640625 C137.77751517 259.36800821 148.67219134 244.96208351 155.6484375 226.8125 C156.75583994 224.08146241 158.02495262 221.46288994 159.3125 218.8125 C162.38056672 212.16659548 163.6875 205.55383807 163.6875 198.25 C164.3475 198.25 165.0075 198.25 165.6875 198.25 C168.7936404 183.30536223 169.3805132 168.48400799 169.6875 153.25 C166.3542475 153.19008257 163.02113865 153.15578558 159.6875 153.125 C158.77226562 153.10824219 157.85703125 153.09148437 156.9140625 153.07421875 C148.38777784 153.01581954 140.11230216 154.06459399 131.6875 155.25 Z M-111.3125 160.25 C-111.44019107 167.43567744 -111.52722226 174.62105798 -111.5871582 181.80761719 C-111.61216702 184.24783258 -111.64618527 186.68797409 -111.68969727 189.12792969 C-111.75094959 192.65318117 -111.77884755 196.17743495 -111.80078125 199.703125 C-111.82658768 200.7786261 -111.8523941 201.8541272 -111.87898254 202.96221924 C-111.8819146 211.03795458 -109.74683874 217.00582351 -106.3125 224.25 C-105.9825 225.24 -105.6525 226.23 -105.3125 227.25 C-104.6525 227.25 -103.9925 227.25 -103.3125 227.25 C-103.2403125 227.93707031 -103.168125 228.62414062 -103.09375 229.33203125 C-102.08448846 233.10162311 -100.09746746 235.84514906 -97.8125 238.9375 C-97.36616211 239.55181885 -96.91982422 240.1661377 -96.45996094 240.79907227 C-93.01413348 245.46920343 -89.30340205 249.82421468 -85.33984375 254.06640625 C-83.51614725 256.03065739 -81.81619445 258.04724682 -80.125 260.125 C-77.55028457 263.16913869 -74.67912754 265.1010888 -71.3125 267.25 C-68.82845053 269.6157614 -66.48168712 272.07114504 -64.125 274.5625 C-62.48127727 276.47713951 -62.48127727 276.47713951 -60.3125 276.25 C-60.6425 274.93 -60.9725 273.61 -61.3125 272.25 C-61.9725 272.25 -62.6325 272.25 -63.3125 272.25 C-63.745625 270.9196875 -63.745625 270.9196875 -64.1875 269.5625 C-65.14398748 266.74617576 -66.18048946 263.99916844 -67.3125 261.25 C-67.9725 261.25 -68.6325 261.25 -69.3125 261.25 C-69.56 260.425 -69.8075 259.6 -70.0625 258.75 C-71.19586739 255.5765713 -72.58250169 252.69208624 -74.109375 249.6953125 C-78.46709124 240.83839573 -81.88538123 232.05716712 -84.35546875 222.50390625 C-85.24705507 219.18438016 -85.24705507 219.18438016 -86.82421875 215.95703125 C-88.6325695 211.45276651 -89.29343804 207.16155141 -89.9375 202.375 C-90.1761684 200.66877488 -90.4181717 198.96301175 -90.6640625 197.2578125 C-90.76541504 196.51160645 -90.86676758 195.76540039 -90.97119141 194.99658203 C-91.14797476 193.2284032 -91.14797476 193.2284032 -92.3125 192.25 C-92.61214406 190.18221142 -92.85204611 188.1057051 -93.06640625 186.02734375 C-93.26459961 184.13725586 -93.26459961 184.13725586 -93.46679688 182.20898438 C-93.6029591 180.86849918 -93.73902556 179.52800426 -93.875 178.1875 C-94.01457106 176.84305707 -94.15453986 175.49865537 -94.29492188 174.15429688 C-94.63804138 170.8532506 -94.97704667 167.55183269 -95.3125 164.25 C-96.4675 163.775625 -97.6225 163.30125 -98.8125 162.8125 C-99.4621875 162.54566406 -100.111875 162.27882812 -100.78125 162.00390625 C-104.26876294 160.96518712 -107.69505506 160.64138322 -111.3125 160.25 Z M102 162.25 C100.82050781 162.62125 99.64101563 162.9925 98.42578125 163.375 C97.07033203 163.808125 97.07033203 163.808125 95.6875 164.25 C95.60709473 165.13260498 95.52668945 166.01520996 95.44384766 166.92456055 C95.14048752 170.21456827 94.83033381 173.50379061 94.515625 176.79272461 C94.38108018 178.2133691 94.24920843 179.6342695 94.12011719 181.05541992 C93.933548 183.10409317 93.73722404 185.15163822 93.5390625 187.19921875 C93.42385254 188.42987061 93.30864258 189.66052246 93.18994141 190.9284668 C92.72053715 194.03159842 91.92471366 196.3896056 90.6875 199.25 C90.37138023 200.56047742 90.09661149 201.88186845 89.87109375 203.2109375 C89.74669922 203.93023437 89.62230469 204.64953125 89.49414062 205.390625 C89.37232422 206.12796875 89.25050781 206.8653125 89.125 207.625 C88.93647461 208.71941406 88.93647461 208.71941406 88.74414062 209.8359375 C87.98323907 214.29776863 87.30854162 218.76667095 86.6875 223.25 C86.0275 223.25 85.3675 223.25 84.6875 223.25 C84.37296875 224.3121875 84.0584375 225.374375 83.734375 226.46875 C83.30246 227.89594738 82.87014688 229.32302432 82.4375 230.75 C82.13005859 231.79414063 82.13005859 231.79414063 81.81640625 232.859375 C80.48166121 237.22763151 78.8279022 241.20031493 76.71826172 245.24951172 C75.6805613 247.26346653 74.72805003 249.2998718 73.79296875 251.36328125 C70.27896439 259.06946293 66.69885386 266.281867 61.83984375 273.24609375 C61.45957031 273.90738281 61.07929688 274.56867188 60.6875 275.25 C61.0175 275.91 61.3475 276.57 61.6875 277.25 C62.43 276.486875 63.1725 275.72375 63.9375 274.9375 C66.6875 272.25 66.6875 272.25 69 270.5625 C69.556875 270.129375 70.11375 269.69625 70.6875 269.25 C70.6875 268.59 70.6875 267.93 70.6875 267.25 C71.285625 266.96125 71.88375 266.6725 72.5 266.375 C74.88077792 265.20257974 74.88077792 265.20257974 77.6875 263.25 C77.6875 262.59 77.6875 261.93 77.6875 261.25 C78.23792969 261.0334375 78.78835938 260.816875 79.35546875 260.59375 C82.45381556 258.80843793 84.6367394 256.3831011 87 253.75 C87.4842041 253.21608643 87.9684082 252.68217285 88.46728516 252.13208008 C92.04354842 248.12292581 95.22728471 243.9466811 98.203125 239.46875 C99.49501611 237.53771276 100.86948003 235.75463625 102.3125 233.9375 C105.31604634 229.79399382 106.85000654 225.01777503 108.57421875 220.23828125 C109.6875 217.25 109.6875 217.25 110.7428894 215.39569092 C111.90247553 212.76168128 111.92823754 210.80488424 111.91455078 207.93066406 C111.91432419 206.33946747 111.91432419 206.33946747 111.91409302 204.71612549 C111.90377045 203.57746033 111.89344788 202.43879517 111.8828125 201.265625 C111.8799826 200.09489441 111.87715271 198.92416382 111.87423706 197.71795654 C111.86304156 193.97853375 111.83793776 190.23935041 111.8125 186.5 C111.8024694 183.96484721 111.79334369 181.42969066 111.78515625 178.89453125 C111.76310426 172.67960579 111.72963275 166.46482 111.6875 160.25 C108.11273541 160.25 105.40599498 161.17087288 102 162.25 Z M-75.3125 174.25 C-75.35504356 176.24954746 -75.35330783 178.25041636 -75.3125 180.25 C-74.9825 180.58 -74.6525 180.91 -74.3125 181.25 C-73.96902012 182.7604523 -73.67782262 184.28288103 -73.41015625 185.80859375 C-73.24193359 186.75283203 -73.07371094 187.69707031 -72.90039062 188.66992188 C-72.72701172 189.66572266 -72.55363281 190.66152344 -72.375 191.6875 C-70.36451297 205.35818338 -70.36451297 205.35818338 -66.375 218.5 C-66.02695313 219.32886719 -65.67890625 220.15773438 -65.3203125 221.01171875 C-64.51409275 222.80227657 -63.64243993 224.56331775 -62.75 226.3125 C-61.57099751 228.72176597 -60.77634279 230.85911084 -59.99609375 233.40234375 C-58.4390038 238.14162554 -56.33455423 242.38678878 -53.9375 246.75 C-53.33651489 247.86181641 -53.33651489 247.86181641 -52.72338867 248.99609375 C-51.93818574 250.44579716 -51.14983737 251.89380263 -50.35791016 253.33984375 C-49.50464529 254.89891528 -48.66276084 256.46421071 -47.82421875 258.03125 C-44.31329753 264.52702607 -40.62015531 271.06359953 -35.3125 276.25 C-35.31773682 275.57235596 -35.32297363 274.89471191 -35.32836914 274.1965332 C-35.40612333 262.52257901 -35.46431249 250.8523188 -34.9375 239.1875 C-34.88360107 237.91616211 -34.88360107 237.91616211 -34.82861328 236.61914062 C-34.61824546 232.52609722 -34.24491103 228.55894172 -33.51953125 224.5234375 C-31.94526222 216.77068028 -31.94526222 216.77068028 -33.71875 209.2578125 C-35.75665988 206.67907269 -37.91214749 204.49114546 -40.3125 202.25 C-41.55496651 200.80298107 -42.78510212 199.34524146 -44 197.875 C-46.55438319 194.97731702 -49.25957266 192.62449904 -52.3125 190.25 C-52.828125 189.54875 -53.34375 188.8475 -53.875 188.125 C-55.50036253 186.00496192 -56.92690859 185.36327599 -59.3125 184.25 C-59.6425 183.59 -59.9725 182.93 -60.3125 182.25 C-61.89234007 181.13064284 -61.89234007 181.13064284 -63.75 180.125 C-64.36746094 179.77179688 -64.98492187 179.41859375 -65.62109375 179.0546875 C-67.30132718 178.10679675 -67.30132718 178.10679675 -69.3125 178.25 C-69.3125 177.59 -69.3125 176.93 -69.3125 176.25 C-71.2925 175.59 -73.2725 174.93 -75.3125 174.25 Z M68.0625 178.4375 C67.10452515 179.0577002 67.10452515 179.0577002 66.12719727 179.69042969 C57.41491127 185.35402733 50.32975641 191.20937381 43.6875 199.25 C43.21957031 199.70761719 42.75164062 200.16523438 42.26953125 200.63671875 C38.11340348 204.87494287 33.22437174 210.16825656 33.1875 216.375 C33.51240693 218.8930287 33.8452957 221.41004492 34.1875 223.92578125 C34.83910731 229.14587981 35.05363783 234.37496912 35.29296875 239.62695312 C35.46658299 243.12617806 35.72245953 246.4668871 36.28125 249.93359375 C36.70334805 253.37937492 36.3047409 255.85304661 35.6875 259.25 C35.5634298 262.20945981 35.59237439 265.16359881 35.625 268.125 C35.62951172 268.90875 35.63402344 269.6925 35.63867188 270.5 C35.65035907 272.41670014 35.66829092 274.33336048 35.6875 276.25 C36.3475 276.25 37.0075 276.25 37.6875 276.25 C38.00203125 275.66992188 38.3165625 275.08984375 38.640625 274.4921875 C40.53504569 271.03429913 42.42015261 267.64670904 44.625 264.375 C54.50523773 250.11996894 54.50523773 250.11996894 59.6875 234.25 C60.3475 234.25 61.0075 234.25 61.6875 234.25 C61.94144531 233.39277344 62.19539063 232.53554688 62.45703125 231.65234375 C62.80121094 230.50894531 63.14539063 229.36554688 63.5 228.1875 C63.83644531 227.06214844 64.17289063 225.93679688 64.51953125 224.77734375 C65.6875 221.25 65.6875 221.25 67.21875 217.796875 C68.76884821 214.05355272 69.61531106 210.53780348 70.375 206.5625 C70.75205078 204.63857422 70.75205078 204.63857422 71.13671875 202.67578125 C71.79332459 199.17008185 71.79332459 199.17008185 71.6875 195.25 C72.3475 195.25 73.0075 195.25 73.6875 195.25 C74.02715474 193.06347261 74.35892477 190.87571975 74.6875 188.6875 C74.9659375 186.86025391 74.9659375 186.86025391 75.25 184.99609375 C75.67305077 181.37372152 75.76251425 177.89287954 75.6875 174.25 C73.16515277 174.25 70.19816158 177.05241217 68.0625 178.4375 Z " fill="#3EBD95" transform="translate(239.3125,74.75)"/>
</svg>
